<svg width="500" height="500" viewBox="0 0 500 500" fill="none" xmlns="http://www.w3.org/2000/svg">
<g clip-path="url(#clip0_209_338)">
<path d="M550 -50H-50V550H550V-50Z" fill="white"/>
<path d="M550 -50H-50V550H550V-50Z" fill="#E4EBF5"/>
<path fill-rule="evenodd" clip-rule="evenodd" d="M337.333 266.057H325.906C321.469 249.146 307.234 243.729 301.474 226.521C297.688 215.182 297.87 203.12 301.438 192.51C307.255 202.396 318.141 208.557 329.526 211.339C339.177 213.693 342.427 220.141 343.464 228.969C344.505 220.135 347.755 213.687 357.406 211.339C368.792 208.557 379.677 202.396 385.495 192.51C389.063 203.12 389.245 215.182 385.453 226.521C379.693 243.729 365.458 249.146 361.021 266.057H349.599C352.38 232.786 373.427 236.318 377.302 215.167C363.651 237.464 347.12 224.547 343.458 261.469C339.802 224.552 323.271 237.464 309.615 215.167C313.505 236.318 334.547 232.786 337.333 266.057Z" fill="#9EBCDC"/>
<mask id="mask0_209_338" style="mask-type:luminance" maskUnits="userSpaceOnUse" x="319" y="269" width="49" height="34">
<path d="M319.333 269.667H367.333V302.26H319.333V269.667Z" fill="white"/>
</mask>
<g mask="url(#mask0_209_338)">
<path fill-rule="evenodd" clip-rule="evenodd" d="M366.463 270.323H320.474V276.313C320.474 279.604 323.547 282.302 327.297 282.302H327.385V288.292C327.385 293.412 339.849 293.417 344.24 294.276H335.266V298.135C335.266 300.26 337.25 301.99 339.656 301.99H347.271C349.693 301.99 351.661 300.255 351.661 298.135V294.276H352.734C356.484 294.276 359.547 291.578 359.547 288.292L359.557 282.302H350.411C354.838 281.432 366.463 281.537 366.463 276.313V270.323Z" fill="#6B8FC6"/>
</g>
<path fill-rule="evenodd" clip-rule="evenodd" d="M326.312 201.667C330.833 197.615 335.276 187.537 336.224 182.88C336.229 182.813 336.245 182.755 336.26 182.688C336.781 179.995 336.896 176.755 336.312 172.87C336.099 171.484 337.047 170.193 338.437 169.995C339.823 169.781 341.104 170.729 341.312 172.12C341.755 174.979 341.849 177.552 341.708 179.885C346.224 178.958 353.625 178.385 357.635 183.151C358.536 184.208 358.401 185.807 357.328 186.698C356.266 187.599 354.672 187.464 353.781 186.396C350.844 182.901 343.781 184.443 340.854 185.266C339.677 191.214 333.068 202.453 329.984 206.156C339.323 208.787 343.714 213.688 343.714 213.688C345.599 211.151 349.74 209.542 354.005 208.12C354.224 199.302 350.281 196.083 350.276 196.073C349.276 195.234 349.156 193.75 350 192.755C350.844 191.76 352.333 191.635 353.328 192.479C353.349 192.49 358.417 196.651 358.724 206.578C360.906 205.854 363.151 205.057 365.365 204.073C371.646 201.302 378.375 196.318 380.984 190.349C383.349 184.979 379.141 180.927 374.568 179.234C374.422 179.182 374.271 179.115 374.135 179.052C372.844 181.042 370.823 183.172 367.714 184.578C366.443 185.151 364.948 184.578 364.375 183.307C363.802 182.036 364.37 180.542 365.635 179.969C369.099 178.406 370.505 175.568 371.042 174.047C371.042 173.839 371.063 173.625 371.099 173.406C371.271 172.078 370.948 170.287 370.37 169.094C369.068 166.432 366.115 165.427 363.302 165.068C363.359 167.708 362.813 171.495 359.969 175.005C359.099 176.083 357.5 176.25 356.422 175.375C355.339 174.495 355.167 172.906 356.047 171.818C358.958 168.219 358.276 164.271 358.047 163.297C357.99 163.229 357.932 163.172 357.875 163.104C357.052 162.224 355.557 161.49 354.432 161.182C351.406 160.359 348.271 161.412 345.615 162.943C347.297 164.912 349.083 167.974 349.245 172.135C349.302 173.537 348.214 174.714 346.823 174.766C345.427 174.818 344.25 173.734 344.198 172.339C344 167.172 340.161 164.635 339.901 164.464C339.604 164.375 339.312 164.271 339.021 164.13C336.917 163.151 333.812 162.682 331.531 162.953C325.823 163.62 323.068 168.604 321.526 173.635C321.458 173.839 321.396 174.037 321.307 174.219C323.729 176.375 326.911 180.573 325.484 187.146C325.187 188.516 323.839 189.385 322.469 189.089C321.115 188.792 320.24 187.448 320.536 186.083C323.167 173.896 308.13 174.865 304.63 186.771C302.635 193.604 319.458 207.807 326.312 201.667Z" fill="#4D66A8"/>
<path d="M294.534 292.625V347H133.881V292.625H294.534ZM293.545 91.9318V146.801H147.227V91.9318H293.545ZM252.517 217.983V219.96L166.011 347H109.165V320.801L182.818 218.972L109.165 118.131V91.9318H166.011L252.517 217.983Z" fill="#4D66A8"/>
<path d="M247.642 383.865L252.397 355.333L321.085 269.738H346.975L340.635 307.78H325.84L288.855 354.277L288.59 355.333H368.902L364.147 383.865H247.642ZM309.989 405L315.009 375.147L317.915 362.731L333.238 269.738H367.582L345.126 405H309.989Z" fill="#4D66A8"/>
</g>
<defs>
<clipPath id="clip0_209_338">
<rect width="500" height="500" rx="60" fill="white"/>
</clipPath>
</defs>
</svg>
