<svg width="500" height="500" viewBox="0 0 500 500" fill="none" xmlns="http://www.w3.org/2000/svg">
<g clip-path="url(#clip0_195_338)">
<path fill-rule="evenodd" clip-rule="evenodd" d="M8.36217 353.747H-26.0441C-39.4139 302.809 -82.2889 286.497 -99.6378 234.664C-111.044 200.523 -110.492 164.184 -99.7472 132.237C-82.2264 162.002 -49.4347 180.554 -15.1587 188.934C13.9142 196.023 23.7111 215.45 26.8257 242.033C29.9611 215.44 39.7632 196.018 68.8309 188.934C103.117 180.554 135.904 162.002 153.419 132.237C164.164 164.184 164.716 200.523 153.3 234.664C135.956 286.497 93.0809 302.809 79.7111 353.747H45.3101C53.6903 253.533 117.086 264.169 128.753 200.46C87.6382 267.627 37.8465 228.726 26.8153 339.919C15.8101 228.731 -33.9816 267.627 -75.1222 200.46C-63.4087 264.169 -0.0284601 253.533 8.36217 353.747Z" fill="#184251"/>
<mask id="mask0_195_338" style="mask-type:luminance" maskUnits="userSpaceOnUse" x="-44" y="365" width="141" height="98">
<path d="M-43.1743 365.393H96.8257V462.117H-43.1743V365.393Z" fill="white"/>
</mask>
<g mask="url(#mask0_195_338)">
<path fill-rule="evenodd" clip-rule="evenodd" d="M96.0965 366.601H-42.4087V384.638C-42.4087 394.549 -33.1587 402.674 -21.8618 402.674H-21.6014V420.71C-21.6014 436.127 15.9455 436.153 29.1694 438.747H2.14339V450.356C2.14339 456.757 8.10694 461.966 15.3674 461.966H38.2996C45.5913 461.966 51.5236 456.747 51.5236 450.356V438.747H54.7528C66.0496 438.747 75.2736 430.622 75.2736 420.71L75.2996 402.674H47.7528C61.0861 400.054 96.0965 400.372 96.0965 384.638V366.601Z" fill="white"/>
</g>
<path fill-rule="evenodd" clip-rule="evenodd" d="M-24.8307 159.809C-11.2057 147.596 2.16409 117.247 5.02347 103.216C5.04951 103.013 5.08076 102.841 5.14326 102.638C6.69534 94.5386 7.0443 84.7729 5.28389 73.075C4.64847 68.8927 7.50264 65.0073 11.6849 64.4031C15.8672 63.7677 19.7266 66.6219 20.3568 70.8042C21.6797 79.424 21.9714 87.1688 21.5391 94.2052C35.1381 91.4084 57.4401 89.6844 69.5078 104.033C72.2214 107.226 71.8151 112.039 68.5912 114.726C65.3985 117.434 60.586 117.028 57.8985 113.804C49.0495 103.294 27.7943 107.924 18.9714 110.408C15.4245 128.325 -4.48174 162.179 -13.763 173.33C14.3568 181.252 27.5808 196.007 27.5808 196.007C33.2579 188.377 45.737 183.528 58.5808 179.236C59.2422 152.674 47.3672 142.997 47.3412 142.96C44.3412 140.429 43.9662 135.955 46.5078 132.966C49.0495 129.971 53.5391 129.591 56.5391 132.132C56.6016 132.158 71.8672 144.695 72.7891 174.606C79.362 172.414 86.1276 170.023 92.7891 167.059C111.721 158.705 131.977 143.69 139.846 125.716C146.961 109.549 134.289 97.3354 120.508 92.2365C120.076 92.0906 119.617 91.8875 119.211 91.6896C115.315 97.6844 109.237 104.106 99.8724 108.341C96.0391 110.065 91.5443 108.341 89.8151 104.507C88.0912 100.674 89.7891 96.1792 93.6172 94.45C104.044 89.7521 108.279 81.2 109.893 76.6219C109.893 75.9813 109.951 75.3511 110.065 74.6896C110.581 70.6896 109.602 65.299 107.872 61.6948C103.951 53.6896 95.0547 50.6636 86.5755 49.5646C86.7474 57.5229 85.1068 68.9292 76.5495 79.5021C73.9297 82.7573 69.112 83.2521 65.8568 80.6219C62.6016 77.9709 62.0808 73.1844 64.7318 69.9031C73.4974 59.0698 71.4506 47.1688 70.7526 44.2365C70.5808 44.0334 70.4037 43.8615 70.2318 43.6584C67.7526 41.0073 63.2631 38.7886 59.862 37.8667C50.7578 35.3875 41.3099 38.5594 33.2995 43.174C38.3776 49.1063 43.7631 58.3302 44.2474 70.8667C44.4193 75.075 41.1381 78.6167 36.9558 78.7886C32.7474 78.9344 29.2058 75.674 29.0339 71.4709C28.4401 55.9084 16.8881 48.2729 16.1068 47.7521C15.211 47.4917 14.3203 47.174 13.4558 46.7417C7.11201 43.8042 -2.24736 42.3927 -9.10674 43.2C-26.3099 45.2156 -34.6015 60.2261 -39.2474 75.3771C-39.4505 75.9813 -39.6432 76.5854 -39.9088 77.1375C-32.6172 83.6219 -23.0286 96.2729 -27.3203 116.07C-28.2109 120.19 -32.2734 122.809 -36.3984 121.914C-40.4869 121.023 -43.1119 116.986 -42.2213 112.872C-34.2994 76.1584 -79.5911 79.075 -90.1328 114.945C-96.1432 135.518 -45.4661 178.304 -24.8307 159.809Z" fill="white"/>
</g>
<defs>
<clipPath id="clip0_195_338">
<rect width="500" height="500" fill="white"/>
</clipPath>
</defs>
</svg>
