<svg width="270" height="426" viewBox="0 0 270 426" fill="none" xmlns="http://www.w3.org/2000/svg">
<path fill-rule="evenodd" clip-rule="evenodd" d="M116.536 317.021H82.1302C68.7604 266.083 25.8854 249.771 8.53647 197.938C-2.86978 163.797 -2.31769 127.458 8.4271 95.5104C25.9479 125.276 58.7396 143.828 93.0156 152.208C122.089 159.297 131.885 178.724 135 205.307C138.135 178.714 147.938 159.292 177.005 152.208C211.292 143.828 244.078 125.276 261.594 95.5104C272.339 127.458 272.891 163.797 261.474 197.938C244.13 249.771 201.255 266.083 187.885 317.021H153.484C161.865 216.807 225.26 227.443 236.927 163.734C195.813 230.901 146.021 192 134.99 303.193C123.984 192.005 74.1927 230.901 33.0521 163.734C44.7656 227.443 108.146 216.807 116.536 317.021Z" fill="#F7F7F7"/>
<mask id="mask0_195_370" style="mask-type:luminance" maskUnits="userSpaceOnUse" x="65" y="328" width="140" height="98">
<path d="M65 328.667H205V425.391H65V328.667Z" fill="white"/>
</mask>
<g mask="url(#mask0_195_370)">
<path fill-rule="evenodd" clip-rule="evenodd" d="M204.271 329.875H65.7656V347.911C65.7656 357.823 75.0156 365.948 86.3125 365.948H86.5729V383.984C86.5729 399.401 124.12 399.427 137.344 402.021H110.318V413.63C110.318 420.031 116.281 425.24 123.542 425.24H146.474C153.766 425.24 159.698 420.021 159.698 413.63V402.021H162.927C174.224 402.021 183.448 393.896 183.448 383.984L183.474 365.948H155.927C169.26 363.328 204.271 363.646 204.271 347.911V329.875Z" fill="#5CE1E6"/>
</g>
<path fill-rule="evenodd" clip-rule="evenodd" d="M83.3437 123.083C96.9687 110.87 110.339 80.5208 113.198 66.4896C113.224 66.2864 113.255 66.1146 113.318 65.9115C114.87 57.8125 115.219 48.0469 113.458 36.3489C112.823 32.1667 115.677 28.2812 119.859 27.6771C124.042 27.0417 127.901 29.8958 128.531 34.0781C129.854 42.6979 130.146 50.4427 129.714 57.4792C143.312 54.6823 165.615 52.9583 177.682 67.3073C180.396 70.5 179.99 75.3125 176.766 78C173.573 80.7083 168.76 80.3021 166.073 77.0781C157.224 66.5677 135.969 71.1979 127.146 73.6823C123.599 91.599 103.693 125.453 94.4115 136.604C122.531 144.526 135.755 159.281 135.755 159.281C141.432 151.651 153.911 146.802 166.755 142.51C167.417 115.948 155.542 106.271 155.516 106.234C152.516 103.703 152.141 99.2292 154.682 96.2396C157.224 93.2448 161.714 92.8646 164.714 95.4062C164.776 95.4323 180.042 107.969 180.964 137.88C187.536 135.687 194.302 133.297 200.964 130.333C219.896 121.979 240.151 106.964 248.021 88.9896C255.135 72.8229 242.464 60.6094 228.682 55.5104C228.25 55.3646 227.792 55.1615 227.385 54.9635C223.49 60.9583 217.411 67.3802 208.047 71.6146C204.214 73.3385 199.719 71.6146 197.99 67.7812C196.266 63.9479 197.964 59.4531 201.792 57.7239C212.219 53.026 216.453 44.4739 218.068 39.8958C218.068 39.2552 218.125 38.625 218.24 37.9635C218.755 33.9635 217.776 28.5729 216.047 24.9687C212.125 16.9635 203.229 13.9375 194.75 12.8385C194.922 20.7969 193.281 32.2031 184.724 42.776C182.104 46.0312 177.286 46.526 174.031 43.8958C170.776 41.2448 170.255 36.4583 172.906 33.1771C181.672 22.3437 179.625 10.4427 178.927 7.51041C178.755 7.30728 178.578 7.13541 178.406 6.93228C175.927 4.28124 171.437 2.06249 168.036 1.14062C158.932 -1.33855 149.484 1.83332 141.474 6.44791C146.552 12.3802 151.937 21.6042 152.422 34.1406C152.594 38.3489 149.312 41.8906 145.13 42.0625C140.922 42.2083 137.38 38.9479 137.208 34.7448C136.615 19.1823 125.062 11.5469 124.281 11.026C123.385 10.7656 122.495 10.4479 121.63 10.0156C115.286 7.07812 105.927 5.66666 99.0677 6.47395C81.8646 8.48957 73.5729 23.5 68.9271 38.651C68.724 39.2552 68.5312 39.8594 68.2656 40.4114C75.5573 46.8958 85.1458 59.5469 80.8542 79.3437C79.9635 83.4635 75.901 86.0833 71.776 85.1875C67.6875 84.2969 65.0625 80.2604 65.9531 76.1458C73.875 39.4323 28.5833 42.3489 18.0417 78.2187C12.0312 98.7917 62.7083 141.578 83.3437 123.083Z" fill="#5CE1E6"/>
</svg>
